<svg xmlns="http://www.w3.org/2000/svg" viewBox="0 0 32 32">
  <rect width="32" height="32" rx="6" fill="#c05422"/>
  <rect width="32" height="10" rx="6" fill="#e7922e"/>
  <rect width="10" height="32" rx="6" fill="#e7922e"/>
  <rect x="4" y="4" width="24" height="24" rx="4" fill="#f2c45d"/>

  <!-- Pixel-style A (white) -->
  <rect x="14" y="9" width="3" height="3" fill="#1b1b1b"/>
  <rect x="11" y="12" width="3" height="3" fill="#1b1b1b"/>
  <rect x="17" y="12" width="3" height="3" fill="#1b1b1b"/>
  <rect x="8" y="15" width="3" height="3" fill="#1b1b1b"/>
  <rect x="20" y="15" width="3" height="3" fill="#1b1b1b"/>
  <rect x="8" y="18" width="3" height="3" fill="#1b1b1b"/>
  <rect x="11" y="18" width="3" height="3" fill="#1b1b1b"/>
  <rect x="14" y="18" width="3" height="3" fill="#1b1b1b"/>
  <rect x="17" y="18" width="3" height="3" fill="#1b1b1b"/>
  <rect x="20" y="18" width="3" height="3" fill="#1b1b1b"/>
  <rect x="8" y="21" width="3" height="3" fill="#1b1b1b"/>
  <rect x="20" y="21" width="3" height="3" fill="#1b1b1b"/>
  <rect x="8" y="24" width="3" height="3" fill="#1b1b1b"/>
  <rect x="20" y="24" width="3" height="3" fill="#1b1b1b"/>
</svg>
